<svg xmlns="http://www.w3.org/2000/svg" width="66" height="76">
    <path fill="#CFCFCF" fill-rule="evenodd" d="M64.695 19.872l-7.909 14.652c1.618.36 2.876 1.888 2.876 3.596v10.518h1.528c.809 0 1.438.629 1.438 1.438v10.697c0 .809-.629 1.438-1.438 1.438h-1.528v9.349c0 2.068-1.618 3.686-3.685 3.686H4.298c-2.067 0-3.685-1.618-3.685-3.686V31.558c0-2.068 1.618-3.686 3.685-3.686h16.178l13.301-24.72C34.946.994 37.912.095 40.069 1.264l22.739 12.315c2.247 1.259 3.055 4.045 1.887 6.293zm-5.123 39.463h.09v-7.821h-8.538c-.809 0-1.438.629-1.438 1.438v4.944c0 .809.629 1.439 1.438 1.439h8.448zM3.399 71.56c0 .449.36.809.809.809h51.679c.45 0 .809-.36.809-.809v-9.349h-5.572c-2.337 0-4.314-1.887-4.314-4.315v-4.944c0-2.337 1.887-4.314 4.314-4.314h5.482V38.12c0-.449-.359-.809-.809-.809H4.208c-.449 0-.809.36-.809.809v33.44zm.809-40.811c-.449 0-.809.449-.809.719v2.967c.27-.091.539-.091.809-.091h12.673l1.977-3.595H4.208zM38.721 3.781c-.809-.45-1.888-.09-2.337.719L20.206 34.435h4.943L40.968 5.04l-2.247-1.259zm4.853 2.697L28.385 34.435h4.044L46.63 8.096l-3.056-1.618zm17.796 9.708L49.146 9.534 35.665 34.435H53.46l8.629-16.001c.449-.81.179-1.888-.719-2.248zm-4.045 7.821c-.719 1.168-1.977 1.978-3.415 1.978-.629 0-1.258-.18-1.798-.45l-.719-.36c-.898-.449-1.617-1.258-1.887-2.247-.36-.989-.18-2.068.27-2.966l.898-1.709c.989-1.797 3.416-2.517 5.213-1.528l.719.36c1.798.989 2.517 3.326 1.618 5.214l-.899 1.708zm-2.067-4.495l-.719-.359c-.18-.09-.27-.09-.449-.09-.36 0-.719.269-.899.539l-.899 1.708c-.18.18-.18.449-.09.719.09.18.27.45.45.539l.719.45c.449.269 1.078.09 1.348-.36l.898-1.708c.18-.539 0-1.078-.359-1.438z"/>
</svg>
