<svg xmlns="http://www.w3.org/2000/svg" width="82" height="56">
    <path fill="#CFCFCF" fill-rule="evenodd" stroke="#FFF" d="M72.323 18.7c1.708 3.177 2.679 6.805 2.679 10.658 0 12.454-10.133 22.587-22.587 22.587-12.455 0-22.588-10.133-22.588-22.587 0-.694.032-1.388.095-2.077L6.151 21.648c-1.097-.26-1.871-1.24-1.871-2.367V9.203c0-1.343 1.089-2.432 2.432-2.432h45.703c3.852 0 7.481.971 10.658 2.68.902-3.114 3.776-5.398 7.175-5.398 4.12 0 7.472 3.352 7.472 7.471 0 3.4-2.284 6.275-5.397 7.176zm-19.908-7.064H9.145v5.722l24.059 5.701c1.273.302 2.079 1.556 1.825 2.839-.223 1.131-.337 2.295-.337 3.46 0 9.772 7.951 17.722 17.723 17.722 9.772 0 17.723-7.95 17.723-17.722 0-9.772-7.951-17.722-17.723-17.722zm17.833-2.718c-1.436 0-2.605 1.169-2.605 2.606 0 1.437 1.169 2.607 2.605 2.607 1.438 0 2.607-1.17 2.607-2.607 0-1.437-1.169-2.606-2.607-2.606zM52.415 39.349c-5.509 0-9.99-4.482-9.99-9.991 0-5.509 4.481-9.99 9.99-9.99s9.99 4.481 9.99 9.99-4.481 9.991-9.99 9.991zm0-15.116c-2.826 0-5.125 2.299-5.125 5.125s2.299 5.126 5.125 5.126 5.125-2.3 5.125-5.126c0-2.826-2.299-5.125-5.125-5.125z"/>
</svg>
