<svg xmlns="http://www.w3.org/2000/svg" width="94" height="46">
    <path fill="#CFCFCF" fill-rule="evenodd" d="M91.717 16.349h-6.455V9.546c0-2.055-1.67-3.727-3.723-3.727h-4.376c-.346 0-.681.051-.999.14V4.587c0-2.056-1.67-3.728-3.723-3.728h-7.228c-2.053 0-3.723 1.672-3.723 3.728v11.762H32.51V4.587c0-2.056-1.671-3.728-3.724-3.728h-7.228c-2.053 0-3.723 1.672-3.723 3.728v1.372c-.319-.089-.653-.14-.999-.14h-4.375c-2.053 0-3.723 1.672-3.723 3.727v6.803H2.282c-.753 0-1.362.61-1.362 1.364v10.572c0 .753.609 1.364 1.362 1.364h6.456v6.803c0 2.055 1.67 3.727 3.723 3.727h4.375c.347 0 .681-.051.999-.14v1.372c0 2.056 1.67 3.728 3.723 3.728h7.229c2.052 0 3.723-1.672 3.723-3.728V29.649h28.98v11.762c0 2.056 1.67 3.728 3.723 3.728h7.228c2.053 0 3.724-1.672 3.724-3.728v-1.372c.318.089.652.14.998.14h4.376c2.053 0 3.723-1.672 3.723-3.727v-6.803h6.456c.752 0 1.362-.611 1.362-1.364V17.713c-.001-.754-.61-1.364-1.363-1.364zM8.738 26.921H3.644v-7.844h5.094v7.844zm9.097 9.531c0 .551-.448 1-.999 1h-4.375c-.551 0-.999-.449-.999-1V9.546c0-.551.448-1 .999-1h4.375c.551 0 .999.449.999 1v26.906zm11.95-18.739v23.698c0 .552-.448 1-.999 1h-7.228c-.551 0-.999-.448-.999-1V4.587c0-.552.448-1 .999-1h7.228c.551 0 .999.448.999 1v13.126zm31.705 9.208H32.51v-7.844h28.98v7.844zM73.44 9.546v31.865c0 .552-.448 1-.999 1h-7.228c-.551 0-.999-.448-.999-1V4.587c0-.552.448-1 .999-1h7.228c.551 0 .999.448.999 1v4.959zm9.098 8.167V36.452c0 .551-.448 1-.999 1h-4.376c-.55 0-.999-.449-.999-1V9.546c0-.551.449-1 .999-1h4.376c.551 0 .999.449.999 1v8.167zm7.817 9.208h-5.093v-7.844h5.093v7.844z"/>
</svg>
